<?xml version="1.0" encoding="UTF-8"?>
<svg width="620px" height="197px" viewBox="1930 890 620 197" xmlns="http://www.w3.org/2000/svg" xmlns:xlink="http://www.w3.org/1999/xlink" version="1.1">
 <!-- Generated by Pixelmator Pro 2.2 -->
 <defs>
  <text id="string" transform="matrix(1.0 0.0 0.0 1.0 2120.0 904.0)">
   <tspan text-decoration="none" fill="#000000" y="51.0" font-family="Helvetica, Helvetica" font-size="66" x="1.0">Team</tspan>
   <tspan text-decoration="none" fill="#000000" y="156.0" font-family="Helvetica, Helvetica" font-size="100" x="1.0">Berryman</tspan>
  </text>
 </defs>
 <use id="Team-Berryman" xlink:href="#string"/>
 <g id="group">
  <path id="Path" d="M2010.752 945.88 L2015.952 954.885 2016.448 954.027 2018.573 950.347 2017.866 949.123 2019.278 949.123 2019.469 948.796 2016.607 943.84 2017.852 943.84 2014.267 937.635 2010.686 943.84 2011.93 943.84 Z" fill="#000000" fill-opacity="1" stroke="none"/>
  <path id="Path-1" d="M1993.657 942.823 L2000.125 954.025 2005.305 945.051 2002.485 940.165 2004.424 940.165 1998.838 930.491 1993.252 940.165 1995.193 940.165 Z" fill="#000000" fill-opacity="1" stroke="none"/>
  <path id="Path-2" d="M1993.64 979.825 L1988.675 979.825 1997.13 965.181 1993.684 965.181 1997.305 958.907 1995.291 955.421 1998.146 955.421 1989.925 941.179 1981.701 955.421 1984.556 955.421 1977.555 967.547 1981.665 967.547 1973.913 980.973 1987.203 980.973 1987.203 990.589 1987.425 990.589 Z" fill="#000000" fill-opacity="1" stroke="none"/>
  <path id="Path-3" d="M2018.536 955.233 L2022.282 955.233 2019.218 960.541 2021.896 965.181 2018.448 965.181 2019.77 967.468 2027.328 967.468 2027.328 975.399 2038.152 956.653 2037.98 956.355 2033.524 956.355 2037.626 949.251 2034.698 944.182 2037.299 944.182 2029.808 931.206 2022.315 944.182 2024.917 944.182 Z" fill="#000000" fill-opacity="1" stroke="none"/>
  <path id="Path-4" d="M2017.762 977.413 L2022.726 977.413 2014.271 962.769 2017.718 962.769 2007.79 945.573 1997.861 962.769 2001.308 962.769 1992.853 977.413 1997.818 977.413 1988.457 993.625 2004.504 993.625 2004.504 1005.237 2011.076 1005.237 2011.076 993.625 2023.717 993.625 2025.42 990.676 Z" fill="#000000" fill-opacity="1" stroke="none"/>
  <path id="Path-5" d="M2065.41 974.334 L2072.322 974.334 2060.552 953.943 2065.35 953.943 2051.527 930 2037.702 953.943 2042.5 953.943 2030.728 974.334 2037.642 974.334 2024.606 996.91 2046.952 996.91 2046.952 1013.077 2056.101 1013.077 2056.101 996.91 2078.447 996.91 Z" fill="#000000" fill-opacity="1" stroke="none"/>
 </g>
 <g id="Corner">
  <path id="Triangle" d="M2075 1030 L2045 1015 2045 1045 Z" fill="#000000" fill-opacity="1" stroke="none"/>
  <path id="Line" d="M1970 930 L1970 1030" fill="none" stroke="#000000" stroke-width="5" stroke-opacity="1" stroke-linejoin="round" stroke-linecap="round"/>
  <path id="Line-1" d="M1970 1030 L2060 1030" fill="none" stroke="#000000" stroke-width="5" stroke-opacity="1" stroke-linejoin="round" stroke-linecap="round"/>
 </g>
 <path id="Rectangle" d="M1940 1060 L2100 1060 2100 900 1940 900 Z" fill="none" stroke="#000000" stroke-width="8" stroke-opacity="1" stroke-linejoin="round" stroke-linecap="round"/>
</svg>
